<svg xmlns="http://www.w3.org/2000/svg" xmlns:xlink="http://www.w3.org/1999/xlink" width="1080" zoomAndPan="magnify" viewBox="0 0 810 809.999993" height="1080" preserveAspectRatio="xMidYMid meet" version="1.0"><defs><clipPath id="ee98583813"><path d="M 404 191.355469 L 458 191.355469 L 458 244 L 404 244 Z M 404 191.355469 " clip-rule="nonzero"/></clipPath></defs><path fill="#03989e" d="M 430.929688 232.597656 C 439.464844 232.59375 446.382812 225.992188 446.402344 217.824219 C 446.425781 208.738281 439.957031 202.367188 430.707031 202.367188 C 422.519531 202.371094 415.703125 209.03125 415.695312 217.046875 C 415.683594 225.710938 422.433594 232.601562 430.929688 232.597656 Z M 430.898438 193.609375 C 444.480469 193.585938 454.917969 203.820312 455.039062 217.289062 C 455.164062 230.871094 444.53125 241.378906 430.695312 241.34375 C 417.707031 241.316406 406.925781 230.519531 406.996094 217.609375 C 407.070312 204.128906 417.523438 193.628906 430.898438 193.609375 Z M 375.097656 251.445312 C 375.699219 253.277344 375.730469 253.832031 376.015625 254.164062 C 376.992188 255.289062 378.027344 256.371094 379.101562 257.40625 C 389.644531 267.554688 401.757812 275.21875 415.445312 280.398438 C 434.761719 287.710938 454.363281 289.273438 474.535156 284.113281 C 491.492188 279.773438 506.816406 272.191406 521.296875 262.546875 C 524.660156 260.308594 523.511719 258.976562 521.472656 256.851562 C 515.976562 251.113281 510.261719 245.527344 505.351562 239.308594 C 502.171875 235.277344 500.171875 235.472656 496.804688 238.777344 C 486.371094 249.027344 474.304688 256.761719 460.3125 261.300781 C 436.953125 268.878906 413.9375 267.535156 391.265625 258.5 C 386.136719 256.453125 381.136719 254.089844 375.097656 251.445312 Z M 450.394531 296.292969 C 410.207031 293.878906 378.640625 276.535156 356.082031 243.257812 C 353.707031 239.753906 352.261719 235.523438 350.941406 231.449219 C 350.453125 229.945312 351.007812 227.109375 352.105469 226.351562 C 353.261719 225.550781 356.070312 225.882812 357.390625 226.808594 C 361.453125 229.65625 365.027344 233.1875 369.003906 236.164062 C 387.007812 249.632812 407.375 257.605469 429.742188 257.773438 C 453.734375 257.957031 474.535156 248.53125 491.695312 231.535156 C 493.460938 229.785156 495.144531 227.953125 496.828125 226.117188 C 500.355469 222.269531 502.78125 222.21875 506.179688 226.308594 C 509.777344 230.644531 512.773438 235.554688 516.738281 239.496094 C 522.097656 244.820312 527.945312 249.710938 533.949219 254.304688 C 537.839844 257.277344 538.464844 260.308594 534.550781 263.390625 C 515.792969 278.1875 494.917969 288.695312 471.484375 293.648438 C 464.550781 295.113281 457.382812 295.449219 450.394531 296.292969 Z M 268.105469 329.042969 C 268.476562 329.269531 268.847656 329.492188 269.214844 329.71875 C 270.5625 328.632812 271.941406 327.589844 273.246094 326.457031 C 286.820312 314.648438 302.050781 306.328125 320.257812 304.519531 C 330.667969 303.488281 340.125 304.878906 348.453125 308.945312 C 353.207031 311.269531 360.933594 314.808594 365.835938 323.507812 C 366.949219 325.484375 372.347656 335.066406 369.328125 345.105469 C 366.996094 352.875 365.671875 358.496094 346.574219 372.648438 C 345.25 373.632812 344.425781 375.300781 343.371094 376.652344 C 344.902344 377.472656 346.347656 378.628906 347.980469 379.070312 C 360.570312 382.476562 371.183594 389.078125 379.195312 399.292969 C 395.238281 419.753906 395.902344 442.371094 386.695312 465.582031 C 372.972656 500.175781 340.109375 515.238281 304.78125 503.890625 C 286.640625 498.0625 272.210938 487.132812 260.429688 472.390625 C 259.121094 470.757812 257.539062 469.339844 255.570312 467.285156 C 254.371094 475.179688 257.644531 487.117188 262.632812 495.90625 C 274.675781 517.125 292.871094 530.832031 315.488281 538.925781 C 337.039062 546.632812 358.433594 546.414062 379.195312 536.074219 C 396.792969 527.316406 409.195312 513.199219 418.242188 496.136719 C 423.8125 485.640625 427.0625 474.835938 427.75 463.695312 C 427.875 461.625 428.390625 451.675781 424.957031 438.347656 C 419.296875 416.367188 406.878906 400.648438 398.082031 391.527344 C 402.664062 391.132812 409.300781 390.160156 416.8125 387.488281 C 426.425781 384.066406 432.601562 380.550781 444.207031 370.773438 C 456.007812 360.832031 467.433594 350.390625 482.492188 345.324219 C 497.070312 340.417969 511.132812 340.730469 524.605469 348.867188 C 543.164062 360.082031 551.785156 386.773438 544.09375 410.285156 C 534.582031 439.355469 510.144531 454.628906 479.789062 450.988281 C 475.175781 450.4375 470.5625 449.847656 465.707031 449.246094 C 465.867188 450.433594 465.828125 450.957031 466.023438 451.367188 C 466.300781 451.953125 466.636719 452.625 467.144531 452.980469 C 472.785156 456.945312 478.003906 461.988281 484.234375 464.5625 C 499.6875 470.953125 515.058594 469.84375 530.507812 462.753906 C 545.332031 455.949219 557.78125 446.636719 566.066406 432.726562 C 583.890625 402.816406 584.375 366.628906 561.386719 337.59375 C 545.554688 317.597656 524.917969 307.519531 498.894531 311.84375 C 479.796875 315.015625 463.503906 324.089844 450.039062 337.816406 C 438.363281 349.714844 441.625 351.183594 431.460938 359.855469 C 426.019531 364.496094 414.617188 372.882812 399.355469 374.972656 C 399.355469 374.972656 391.285156 374.78125 379.664062 372.734375 C 377.410156 372.339844 374.230469 370.542969 373.71875 368.746094 C 373.183594 366.867188 375.027344 364.003906 376.402344 361.949219 C 379.335938 357.574219 383.515625 353.84375 385.640625 349.152344 C 396 326.207031 380.558594 292.726562 355.8125 284.847656 C 324.726562 274.945312 284.976562 284.578125 269.292969 324.140625 C 268.683594 325.6875 268.492188 327.40625 268.105469 329.042969 Z M 344.511719 552.628906 C 321.15625 551.199219 300.839844 544.777344 284.09375 532.644531 C 274.261719 525.519531 259.933594 515.113281 252.507812 495.105469 C 244.515625 473.585938 249.472656 454.289062 251.660156 447.25 C 257.179688 457.449219 269.4375 476.425781 292.289062 488.796875 C 299.371094 492.628906 315.40625 501.054688 333.351562 498.796875 C 339.808594 497.984375 346.300781 495.925781 352.808594 492.398438 C 369.195312 483.523438 377.949219 468.628906 382.117188 450.589844 C 385.519531 435.871094 383.566406 422.082031 375.632812 409.566406 C 366.277344 394.804688 352.46875 386.785156 334.800781 385.613281 C 332.371094 385.449219 328.945312 384.574219 327.984375 382.890625 C 327.179688 381.480469 328.675781 377.773438 330.253906 376.175781 C 335.238281 371.136719 341.007812 366.871094 345.964844 361.808594 C 351.574219 356.085938 357.164062 352.640625 359.253906 345.996094 C 361.558594 338.65625 359.695312 330.207031 355.222656 324.195312 C 349.984375 317.152344 342.480469 315.382812 337.253906 313.9375 C 325.871094 310.789062 316.183594 313.507812 311.257812 314.824219 C 284.492188 321.980469 264.957031 345.523438 259.410156 352.574219 C 258.371094 346.46875 256.796875 332.242188 263.335938 316.289062 C 264.453125 313.570312 269.804688 300.984375 282.90625 290.066406 C 293.164062 281.519531 305.839844 276.199219 320.6875 273.820312 C 340.359375 270.667969 358.730469 273.234375 374.9375 285.621094 C 397.894531 303.171875 403.359375 341.441406 392.667969 355.148438 C 391.242188 356.980469 386.71875 361.972656 388.226562 364.773438 C 388.660156 365.578125 389.683594 366.3125 393.664062 366.816406 C 408.007812 368.632812 418.734375 362.355469 427.097656 351.304688 C 435.53125 340.160156 444.265625 329.402344 455.832031 321.199219 C 476.082031 306.828125 498.117188 298.78125 523.097656 303.433594 C 542.492188 307.046875 557.996094 317.898438 569.515625 333.714844 C 586.597656 357.167969 591.566406 383.15625 584.308594 411.507812 C 575.777344 444.832031 554.101562 465.511719 521.976562 474.988281 C 512.023438 477.925781 502.296875 478.511719 492.988281 476.757812 C 486.144531 475.46875 473.953125 473.382812 464.5 462.851562 C 455.421875 452.742188 454.15625 440.820312 453.917969 436.289062 C 456.164062 437.195312 495.425781 452.378906 521.019531 430.8125 C 523.78125 428.488281 530.992188 421.273438 535.191406 409.8125 C 543.4375 387.304688 535.304688 363.757812 515.140625 354.144531 C 502.804688 348.261719 490.191406 349.578125 478.953125 356.339844 C 468.085938 362.875 458.0625 370.917969 448.105469 378.84375 C 438.691406 386.335938 429.234375 393.40625 417.214844 396.203125 C 413.320312 397.109375 413.753906 399.253906 416 401.964844 C 425.6875 413.683594 432.183594 427.191406 434.898438 441.992188 C 438.640625 462.421875 436.035156 482.269531 425.691406 500.691406 C 414.980469 519.769531 401.003906 535.628906 380.847656 545.085938 C 369.457031 550.429688 357.398438 553.078125 344.511719 552.628906 " fill-opacity="1" fill-rule="nonzero"/><path fill="#03989e" d="M 344.511719 550.523438 C 332.660156 549.761719 320.902344 547.695312 309.691406 543.703125 C 299.726562 540.152344 290.722656 534.960938 282.234375 528.695312 C 275.003906 523.359375 268.160156 517.371094 262.867188 510.050781 C 255.742188 500.195312 251.453125 488.4375 250.464844 476.316406 C 249.683594 466.699219 250.847656 457.015625 253.6875 447.808594 C 252.40625 447.976562 251.125 448.140625 249.84375 448.3125 C 263.074219 472.648438 286.070312 493.070312 313.441406 499.582031 C 331.046875 503.769531 349.382812 499.394531 363.300781 487.808594 C 375.386719 477.738281 382.441406 462.386719 384.953125 447.066406 C 387.78125 429.847656 382.75 412.742188 370.863281 399.914062 C 365.820312 394.464844 359.613281 390.210938 352.730469 387.433594 C 349.242188 386.027344 345.613281 385.011719 341.910156 384.363281 C 340.144531 384.058594 338.363281 383.820312 336.582031 383.652344 C 335.003906 383.503906 331.261719 383.609375 330.175781 382.148438 C 328.171875 379.457031 335.550781 374.035156 337.195312 372.585938 C 340.929688 369.304688 344.644531 366.054688 348.183594 362.5625 C 354.015625 356.816406 360.621094 352.023438 362.003906 343.417969 C 363.269531 335.546875 360.777344 327.191406 355.511719 321.226562 C 350.65625 315.730469 343.605469 313.300781 336.679688 311.613281 C 321.328125 307.871094 304.636719 313.253906 291.394531 321.042969 C 280.015625 327.734375 270.003906 336.765625 261.449219 346.78125 C 260.246094 348.191406 259.070312 349.628906 257.921875 351.089844 C 259.09375 351.398438 260.265625 351.707031 261.4375 352.015625 C 257.851562 330.570312 265.46875 309.171875 281.214844 294.371094 C 290.976562 285.195312 303.246094 279.542969 316.269531 276.773438 C 329.441406 273.972656 343.410156 273.660156 356.289062 277.972656 C 378.644531 285.453125 392.941406 305.789062 395.457031 328.839844 C 396.304688 336.601562 396.1875 345.710938 391.917969 352.554688 C 389.847656 355.878906 386.1875 358.765625 385.867188 362.933594 C 385.511719 367.539062 390.019531 368.472656 393.664062 368.917969 C 405.144531 370.320312 415.894531 366.265625 424 358.105469 C 428.753906 353.320312 432.472656 347.550781 436.78125 342.375 C 441.214844 337.042969 445.960938 331.941406 451.242188 327.429688 C 471.925781 309.761719 500.027344 299.648438 527.011719 306.441406 C 552.246094 312.792969 571.34375 333.75 580.203125 357.671875 C 589.1875 381.933594 586.1875 410.140625 573.863281 432.746094 C 563.320312 452.078125 545.378906 465.203125 524.652344 471.957031 C 511.839844 476.132812 499.035156 476.574219 486.023438 473.109375 C 473.261719 469.710938 462.847656 461.136719 458.425781 448.460938 C 457.058594 444.53125 456.253906 440.441406 456.019531 436.289062 C 455.132812 436.964844 454.246094 437.640625 453.355469 438.316406 C 473.484375 446.382812 500.167969 448.039062 518.640625 435.261719 C 542.589844 418.691406 548.9375 379.738281 526.484375 359.265625 C 513.070312 347.035156 493.972656 345.144531 478.347656 354.257812 C 469.71875 359.285156 461.738281 365.421875 453.894531 371.585938 C 446.300781 377.550781 438.914062 383.960938 430.453125 388.703125 C 426.230469 391.070312 421.828125 392.824219 417.15625 394.054688 C 414.476562 394.757812 411.746094 396.175781 412.292969 399.40625 C 412.890625 402.972656 416.773438 406.199219 418.757812 409.035156 C 421.414062 412.832031 423.785156 416.828125 425.820312 420.996094 C 434.15625 438.066406 436.621094 458.4375 432.539062 477 C 428.675781 494.550781 418.5625 511.09375 406.25 524.046875 C 393.8125 537.132812 377.539062 546.550781 359.640625 549.578125 C 354.640625 550.421875 349.574219 550.667969 344.511719 550.523438 C 341.800781 550.445312 341.804688 554.65625 344.511719 554.730469 C 362.261719 555.234375 379.636719 549.875 394.253906 539.824219 C 407.328125 530.835938 417.613281 518.523438 425.664062 504.949219 C 434.792969 489.554688 439.464844 472.3125 438.484375 454.378906 C 437.515625 436.671875 431.722656 419.609375 421.222656 405.28125 C 420.023438 403.644531 418.695312 402.105469 417.484375 400.480469 C 417.316406 400.253906 416.226562 399 416.398438 398.640625 C 416.652344 398.117188 419.222656 397.875 419.753906 397.726562 C 423.753906 396.613281 427.621094 394.992188 431.285156 393.042969 C 439.15625 388.863281 446.0625 383.128906 453.011719 377.609375 C 460.707031 371.496094 468.480469 365.449219 476.777344 360.160156 C 484.792969 355.054688 493.433594 351.597656 503.109375 352.734375 C 519.238281 354.628906 531.96875 367.550781 535.324219 383.109375 C 538.605469 398.320312 533.296875 414.851562 522.816406 426.148438 C 506.257812 444 477.957031 442.460938 456.75 435.097656 C 455.984375 434.835938 455.226562 434.5625 454.476562 434.257812 C 453.230469 433.761719 451.742188 435.027344 451.8125 436.289062 C 452.453125 447.578125 456.851562 458.644531 465.128906 466.515625 C 473.523438 474.503906 484.847656 477.929688 496.109375 479.359375 C 509.972656 481.117188 523.632812 477.542969 536.265625 472.007812 C 546.566406 467.492188 556.125 461.191406 564.011719 453.140625 C 581.144531 435.640625 589.914062 410.144531 589.640625 385.863281 C 589.339844 358.949219 575.976562 331.679688 554.570312 315.230469 C 533.070312 298.710938 504.019531 295.992188 479.089844 305.921875 C 465.945312 311.15625 453.515625 319.027344 443.386719 328.921875 C 438.171875 334.007812 433.496094 339.613281 429.027344 345.355469 C 425 350.527344 421.199219 355.84375 415.730469 359.613281 C 410.546875 363.191406 404.515625 365.0625 398.214844 365.023438 C 396.71875 365.011719 390.945312 365.265625 390.023438 363.714844 C 389.25 362.421875 392.4375 358.789062 393.230469 357.792969 C 398.453125 351.210938 400.105469 343.230469 400.027344 334.933594 C 399.832031 313.097656 389.015625 291.226562 370.140625 279.804688 C 358.242188 272.601562 344.375 269.839844 330.574219 270.625 C 317.050781 271.394531 303.382812 274.769531 291.5625 281.511719 C 270.777344 293.375 257.046875 315.421875 256.382812 339.398438 C 256.253906 344.003906 256.625 348.59375 257.382812 353.132812 C 257.628906 354.613281 259.957031 355.257812 260.898438 354.0625 C 275.816406 335.128906 296.992188 317.355469 321.832031 314.808594 C 329.53125 314.019531 337.742188 315.421875 344.816406 318.617188 C 352.3125 322.003906 357.335938 329.125 358.054688 337.339844 C 358.417969 341.476562 357.6875 345.722656 355.382812 349.222656 C 353.179688 352.570312 349.921875 355.140625 347.023438 357.847656 C 343.824219 360.847656 340.746094 363.933594 337.4375 366.8125 C 334.292969 369.550781 330.535156 372.246094 328.011719 375.597656 C 326.492188 377.613281 324.964844 380.910156 325.957031 383.449219 C 327.058594 386.269531 330.828125 387.210938 333.488281 387.570312 C 340.808594 388.570312 347.707031 389.433594 354.4375 392.78125 C 368.425781 399.738281 378.507812 413.976562 381.023438 429.332031 C 383.542969 444.710938 378.414062 462.25 369.527344 474.886719 C 359.828125 488.675781 342.980469 497.433594 326.089844 497.058594 C 311.496094 496.734375 297.179688 490.160156 285.273438 482.0625 C 273.8125 474.269531 264.226562 463.859375 256.917969 452.113281 C 255.710938 450.175781 254.570312 448.195312 253.476562 446.1875 C 252.582031 444.542969 250.148438 445.019531 249.632812 446.691406 C 243.3125 467.199219 245.257812 490.1875 256.777344 508.535156 C 262.074219 516.96875 269.152344 523.9375 277.003906 529.988281 C 285.304688 536.386719 294.027344 541.90625 303.742188 545.90625 C 316.703125 551.238281 330.570312 553.832031 344.511719 554.730469 C 347.214844 554.90625 347.203125 550.695312 344.511719 550.523438 " fill-opacity="1" fill-rule="nonzero"/><path fill="#03989e" d="M 267.046875 330.859375 C 267.414062 331.085938 267.785156 331.308594 268.15625 331.53125 C 269.023438 332.066406 269.96875 331.789062 270.703125 331.203125 C 281.105469 322.90625 291.097656 314.769531 303.851562 310.308594 C 316.417969 305.917969 330.777344 304.5 343.484375 309.109375 C 352.730469 312.460938 361.15625 318.097656 365.394531 327.230469 C 369.148438 335.308594 368.652344 344.3125 364.5 352.113281 C 362.570312 355.746094 359.765625 358.789062 356.785156 361.59375 C 354.445312 363.800781 351.964844 365.859375 349.4375 367.847656 C 347.820312 369.121094 345.929688 370.25 344.464844 371.707031 C 343.320312 372.84375 342.503906 374.300781 341.554688 375.589844 C 340.882812 376.5 341.402344 377.949219 342.308594 378.464844 C 343.992188 379.425781 345.566406 380.492188 347.421875 381.097656 C 349.753906 381.863281 352.109375 382.492188 354.394531 383.394531 C 358.519531 385.019531 362.453125 387.144531 366.085938 389.679688 C 374.011719 395.21875 380.265625 403.039062 384.597656 411.640625 C 393.496094 429.308594 391.464844 449.671875 383.691406 467.359375 C 377.367188 481.738281 366.566406 493.984375 352.09375 500.460938 C 337.34375 507.066406 320.535156 506.738281 305.339844 501.859375 C 295.617188 498.742188 286.46875 493.863281 278.453125 487.535156 C 270.371094 481.148438 264.179688 473.136719 257.0625 465.796875 C 255.65625 464.347656 253.695312 465.597656 253.472656 467.285156 C 252.027344 478.117188 256.507812 489.824219 261.980469 498.957031 C 267.582031 508.3125 274.777344 516.710938 283.269531 523.558594 C 301.121094 537.945312 325.074219 547.34375 348.160156 546.351562 C 372.421875 545.304688 394.714844 532.605469 409.492188 513.617188 C 422.445312 496.976562 431.253906 476.234375 429.765625 454.859375 C 428.058594 430.296875 416.464844 407.640625 399.570312 390.039062 C 399.074219 391.238281 398.582031 392.4375 398.082031 393.632812 C 407.4375 392.785156 416.546875 390.371094 425.0625 386.398438 C 433.722656 382.359375 441.089844 376.171875 448.328125 370.039062 C 465.140625 355.773438 485.175781 340.367188 508.765625 344.929688 C 529.136719 348.871094 542.429688 366.460938 544.492188 386.546875 C 546.371094 404.871094 538.910156 424.152344 525.050781 436.34375 C 518.019531 442.53125 509.347656 446.550781 500.179688 448.339844 C 488.667969 450.582031 477.1875 448.566406 465.707031 447.140625 C 464.664062 447.011719 463.484375 448.214844 463.605469 449.246094 C 463.84375 451.292969 464.0625 452.972656 465.65625 454.46875 C 467.910156 456.578125 470.753906 458.328125 473.21875 460.210938 C 478.675781 464.375 484.375 467.332031 491.042969 469.078125 C 504.363281 472.5625 518.050781 470.546875 530.519531 465.042969 C 541.234375 460.3125 551.410156 453.808594 559.386719 445.15625 C 567.582031 436.265625 573.332031 425.105469 577.003906 413.640625 C 584.332031 390.753906 581.777344 365.679688 569.199219 345.109375 C 557.632812 326.195312 539.15625 311.234375 516.574219 309.039062 C 492.644531 306.714844 468.425781 317.40625 451.28125 333.648438 C 447.246094 337.46875 443.433594 341.582031 440.253906 346.148438 C 438.355469 348.871094 436.710938 351.71875 434.433594 354.164062 C 427.679688 361.425781 418.613281 367.207031 409.265625 370.429688 C 405.449219 371.742188 401.367188 373.011719 397.300781 372.773438 C 391.636719 372.441406 385.757812 371.957031 380.226562 370.707031 C 379.042969 370.4375 377.050781 369.886719 376.289062 368.835938 C 375.320312 367.496094 376.246094 366.199219 377.027344 364.875 C 378.847656 361.800781 381.226562 359.167969 383.4375 356.382812 C 386.699219 352.253906 388.871094 347.757812 390 342.617188 C 394.117188 323.867188 385.476562 302.722656 370.785156 290.777344 C 356.570312 279.21875 335.59375 277.15625 318.09375 280.519531 C 298.984375 284.191406 282.386719 295.867188 272.535156 312.667969 C 269.601562 317.679688 267.300781 322.804688 266.078125 328.484375 C 265.511719 331.125 269.566406 332.253906 270.136719 329.601562 C 274.273438 310.355469 290.453125 294.089844 308.664062 287.476562 C 316.890625 284.488281 325.621094 283.15625 334.359375 283.363281 C 342.984375 283.566406 352.390625 285 360.191406 288.871094 C 376.867188 297.148438 387.632812 316.839844 386.753906 335.28125 C 386.539062 339.789062 385.589844 344.445312 383.613281 348.523438 C 380.980469 353.949219 376.113281 357.898438 373.160156 363.144531 C 366.4375 375.085938 384.988281 375.867188 392.402344 376.589844 C 395.21875 376.867188 398.117188 377.296875 400.929688 376.855469 C 406.414062 375.988281 411.71875 374.246094 416.742188 371.902344 C 424.542969 368.265625 432.292969 362.949219 438.019531 356.460938 C 440.136719 354.070312 441.769531 351.363281 443.566406 348.738281 C 446.519531 344.414062 450.128906 340.558594 453.910156 336.949219 C 462.523438 328.722656 472.6875 322.070312 483.898438 317.960938 C 504.710938 310.335938 527.460938 311.191406 545.566406 324.804688 C 564.03125 338.691406 576.042969 361.300781 576.914062 384.378906 C 577.769531 407.074219 568.726562 431.609375 551.628906 446.882812 C 533.175781 463.371094 502.925781 474.535156 480.171875 460.019531 C 477.671875 458.421875 475.34375 456.582031 473.003906 454.765625 C 470.976562 453.195312 468.125 451.941406 467.808594 449.246094 C 467.109375 449.945312 466.410156 450.644531 465.707031 451.347656 C 476.570312 452.699219 487.308594 454.492188 498.242188 452.910156 C 506.945312 451.652344 515.410156 448.515625 522.660156 443.503906 C 537.992188 432.910156 547.773438 414.558594 548.894531 396.03125 C 550.054688 376.929688 541.78125 356.332031 524.722656 346.5 C 503.289062 334.144531 478.601562 341.433594 459.882812 355.269531 C 449.578125 362.886719 440.5625 372.289062 429.675781 379.101562 C 420.226562 385.011719 409.148438 388.421875 398.082031 389.425781 C 396.308594 389.585938 395.261719 391.625 396.597656 393.015625 C 410.78125 407.792969 421.050781 426.152344 424.550781 446.464844 C 428.097656 467.050781 422.417969 486.730469 411.125 504.109375 C 398.933594 522.871094 380.277344 536.898438 358.027344 541.03125 C 335.34375 545.242188 311.296875 537.773438 292.429688 525.117188 C 282.933594 518.742188 274.679688 510.554688 268.292969 501.0625 C 261.828125 491.449219 256.089844 479.1875 257.679688 467.285156 C 256.480469 467.78125 255.28125 468.277344 254.085938 468.773438 C 260.882812 475.777344 266.808594 483.445312 274.417969 489.65625 C 281.804688 495.6875 290.011719 500.527344 298.890625 504.019531 C 314.800781 510.273438 332.855469 511.902344 349.164062 506.128906 C 364.859375 500.570312 377.417969 488.808594 385.085938 474.132812 C 394.09375 456.898438 398.027344 435.871094 391.472656 417.148438 C 387.757812 406.539062 381.144531 396.59375 372.511719 389.347656 C 368.625 386.078125 364.335938 383.320312 359.742188 381.15625 C 354.691406 378.777344 349.265625 377.597656 344.429688 374.835938 C 344.683594 375.792969 344.933594 376.753906 345.1875 377.710938 C 349.1875 372.265625 355.410156 368.757812 360.296875 364.058594 C 363.207031 361.261719 365.964844 358.164062 367.929688 354.613281 C 372.421875 346.488281 373.589844 336.847656 370.285156 328.089844 C 366.503906 318.070312 359 311.644531 349.515625 307.128906 C 336.589844 300.980469 321.859375 300.957031 308.191406 304.570312 C 300.695312 306.558594 293.519531 309.753906 286.902344 313.773438 C 280.003906 317.960938 274.011719 323.21875 267.726562 328.230469 C 268.578125 328.121094 269.425781 328.011719 270.277344 327.902344 C 269.90625 327.675781 269.539062 327.453125 269.167969 327.226562 C 266.847656 325.816406 264.734375 329.453125 267.046875 330.859375 " fill-opacity="1" fill-rule="nonzero"/><path fill="#03989e" d="M 450.394531 294.1875 C 425.117188 292.597656 400.566406 284.445312 380.988281 268.03125 C 376.144531 263.972656 371.644531 259.503906 367.503906 254.734375 C 363.089844 249.644531 358.308594 244.0625 355.523438 237.882812 C 354.691406 236.035156 351.5625 230.265625 353.15625 228.457031 C 355.308594 226.019531 361.75 232.945312 363.367188 234.304688 C 368.917969 238.980469 374.910156 243.113281 381.238281 246.660156 C 405.511719 260.261719 435.523438 264.449219 461.761719 253.984375 C 474.398438 248.949219 485.660156 240.929688 495.046875 231.117188 C 496.386719 229.714844 497.617188 228.140625 499.054688 226.839844 C 500.632812 225.410156 501.511719 224.914062 503.289062 226.296875 C 506.277344 228.617188 508.4375 232.753906 510.734375 235.730469 C 515.460938 241.839844 521.386719 246.929688 527.363281 251.777344 C 528.902344 253.027344 530.472656 254.234375 532.03125 255.460938 C 534.070312 257.066406 536.210938 258.847656 533.886719 261.195312 C 530.8125 264.304688 526.59375 266.820312 522.96875 269.261719 C 516.136719 273.871094 508.957031 277.976562 501.484375 281.453125 C 493.859375 285 485.914062 287.851562 477.78125 289.996094 C 468.742188 292.371094 459.640625 293.105469 450.394531 294.1875 C 447.738281 294.496094 447.707031 298.707031 450.394531 298.394531 C 459.332031 297.351562 468.199219 296.722656 476.957031 294.546875 C 484.851562 292.585938 492.546875 289.933594 500.011719 286.703125 C 507.257812 283.558594 514.25 279.832031 520.929688 275.613281 C 524.304688 273.484375 527.597656 271.230469 530.8125 268.867188 C 533.589844 266.828125 537.75 264.5625 538.9375 261.121094 C 539.957031 258.171875 538.441406 255.46875 536.277344 253.503906 C 533.089844 250.605469 529.453125 248.148438 526.179688 245.335938 C 522.960938 242.566406 519.722656 239.722656 516.863281 236.582031 C 513.957031 233.386719 511.578125 229.761719 508.914062 226.371094 C 507.085938 224.050781 504.820312 221.152344 501.550781 221.128906 C 498.25 221.109375 495.925781 224.011719 493.894531 226.199219 C 488.328125 232.203125 482.226562 237.664062 475.375 242.167969 C 448.40625 259.894531 414.074219 259.234375 385.941406 244.425781 C 378.304688 240.410156 371.296875 235.511719 364.714844 229.953125 C 361.484375 227.222656 353.210938 219.675781 349.578125 226.191406 C 347.984375 229.042969 348.863281 231.996094 349.855469 234.84375 C 351.222656 238.765625 352.914062 242.394531 355.289062 245.808594 C 359.21875 251.453125 363.535156 256.839844 368.265625 261.828125 C 389.953125 284.691406 419.242188 296.433594 450.394531 298.394531 C 453.101562 298.566406 453.089844 294.355469 450.394531 294.1875 " fill-opacity="1" fill-rule="nonzero"/><path fill="#03989e" d="M 373.066406 252.003906 C 373.640625 253.828125 373.984375 255.050781 375.273438 256.488281 C 377.339844 258.796875 379.675781 260.886719 382.015625 262.90625 C 386.109375 266.441406 390.464844 269.6875 395.035156 272.582031 C 404.546875 278.605469 415.089844 283.128906 425.980469 285.976562 C 449.441406 292.109375 473.144531 288.699219 495.210938 279.242188 C 500.417969 277.007812 505.492188 274.480469 510.429688 271.699219 C 512.832031 270.34375 515.207031 268.933594 517.550781 267.46875 C 519.742188 266.101562 522.402344 264.789062 524.191406 262.894531 C 527.390625 259.507812 523.847656 256.273438 521.457031 253.800781 C 517.191406 249.386719 512.851562 245.03125 508.890625 240.332031 C 506.347656 237.316406 503.507812 232.828125 498.945312 234.660156 C 496.929688 235.46875 495.421875 237.210938 493.886719 238.671875 C 491.855469 240.59375 489.746094 242.441406 487.566406 244.1875 C 478.671875 251.3125 468.476562 256.675781 457.566406 259.953125 C 443.890625 264.0625 429.453125 265.210938 415.328125 263.011719 C 401.429688 260.847656 388.917969 255.238281 376.160156 249.628906 C 373.703125 248.546875 371.5625 252.171875 374.035156 253.261719 C 384.058594 257.667969 393.917969 262.332031 404.566406 265.070312 C 415.257812 267.824219 426.414062 268.910156 437.429688 268.023438 C 458.195312 266.359375 477.828125 258.308594 493.558594 244.640625 C 495.421875 243.023438 497.113281 241.191406 498.992188 239.605469 C 499.734375 238.980469 500.476562 238.277344 501.472656 238.539062 C 502.71875 238.863281 503.777344 240.707031 504.539062 241.640625 C 507.964844 245.839844 511.691406 249.769531 515.460938 253.664062 C 517.023438 255.269531 519.75 257.171875 520.753906 259.164062 C 521.308594 260.269531 521.472656 259.808594 520.234375 260.730469 C 518.996094 261.65625 517.609375 262.457031 516.304688 263.285156 C 511.789062 266.140625 507.160156 268.808594 502.402344 271.238281 C 482.492188 281.414062 460.144531 287.375 437.738281 284.097656 C 425.628906 282.328125 413.792969 278.265625 403.058594 272.417969 C 398.0625 269.695312 393.269531 266.578125 388.789062 263.0625 C 386.457031 261.234375 384.207031 259.300781 382.035156 257.289062 C 381.003906 256.328125 379.988281 255.347656 379.007812 254.332031 C 377.808594 253.085938 377.644531 252.550781 377.125 250.886719 C 376.320312 248.308594 372.257812 249.410156 373.066406 252.003906 " fill-opacity="1" fill-rule="nonzero"/><g clip-path="url(#ee98583813)"><path fill="#03989e" d="M 430.898438 195.710938 C 439.972656 195.835938 448.429688 200.964844 451.578125 209.707031 C 454.636719 218.183594 452.410156 228 445.53125 233.9375 C 438.660156 239.875 428.1875 240.941406 420.277344 236.492188 C 412.136719 231.910156 407.710938 222.558594 409.503906 213.363281 C 411.527344 203.007812 420.457031 195.898438 430.898438 195.710938 C 433.601562 195.664062 433.609375 191.457031 430.898438 191.503906 C 419.988281 191.699219 410.328125 198.195312 406.503906 208.507812 C 402.617188 218.988281 406.058594 230.953125 414.800781 237.851562 C 423.40625 244.640625 435.800781 245.257812 445.101562 239.445312 C 454.375 233.652344 458.71875 222.5625 456.574219 211.941406 C 454.09375 199.695312 443.113281 191.671875 430.898438 191.503906 C 428.191406 191.464844 428.1875 195.675781 430.898438 195.710938 " fill-opacity="1" fill-rule="nonzero"/></g><path fill="#03989e" d="M 430.929688 234.703125 C 438.332031 234.507812 445.15625 230.207031 447.632812 223.054688 C 449.890625 216.546875 447.789062 208.644531 442.460938 204.261719 C 430.449219 194.386719 411.28125 204.332031 413.847656 220.066406 C 415.230469 228.527344 422.464844 234.484375 430.929688 234.703125 C 433.636719 234.769531 433.632812 230.566406 430.929688 230.496094 C 423.601562 230.304688 417.769531 224.449219 417.796875 217.046875 C 417.828125 209.722656 424.40625 204.152344 431.539062 204.488281 C 438.558594 204.820312 443.972656 209.910156 444.285156 217.003906 C 444.625 224.667969 438.316406 230.300781 430.929688 230.496094 C 428.226562 230.566406 428.214844 234.773438 430.929688 234.703125 " fill-opacity="1" fill-rule="nonzero"/><path fill="#03989e" d="M 569.140625 499.984375 C 578.53125 469.464844 600.847656 443.921875 629.578125 430.125 C 632.210938 428.859375 632.90625 425.097656 631.519531 422.722656 C 629.945312 420.03125 626.761719 419.511719 624.121094 420.78125 C 592.917969 435.765625 568.878906 464.066406 558.710938 497.105469 C 556.660156 503.777344 567.097656 506.628906 569.140625 499.984375 " fill-opacity="1" fill-rule="nonzero"/><path fill="#03989e" d="M 175.09375 380.113281 C 173.316406 427.390625 189.585938 474.566406 216.695312 512.976562 C 240.871094 547.238281 273.773438 575.125 312.0625 592.34375 C 357.769531 612.902344 409.136719 618.800781 458.136719 607.621094 C 493.984375 599.445312 527.058594 582.316406 555.410156 559.082031 C 592.191406 528.933594 619.296875 487.988281 631.90625 442.074219 C 633.230469 437.265625 634.382812 432.414062 635.390625 427.53125 C 636.789062 420.734375 626.367188 417.828125 624.960938 424.652344 C 616.148438 467.40625 594.910156 506.292969 563.886719 536.929688 C 557.1875 543.546875 550.0625 549.699219 542.664062 555.519531 C 542.402344 555.722656 542.140625 555.925781 541.875 556.132812 C 542.804688 555.410156 542.183594 555.894531 541.984375 556.046875 C 541.410156 556.488281 540.832031 556.929688 540.25 557.367188 C 538.917969 558.371094 537.570312 559.363281 536.214844 560.339844 C 533.226562 562.492188 530.1875 564.574219 527.101562 566.585938 C 510.476562 577.40625 492.5 586.09375 473.609375 592.164062 C 426.238281 607.371094 374.976562 605.347656 328.613281 587.605469 C 292.71875 573.871094 260.753906 550.511719 236.1875 520.804688 C 207.054688 485.574219 187.777344 440.683594 185.9375 394.738281 C 185.738281 389.867188 185.726562 384.984375 185.910156 380.113281 C 186.171875 373.148438 175.355469 373.160156 175.09375 380.113281 " fill-opacity="1" fill-rule="nonzero"/><path fill="#03989e" d="M 374.609375 605.78125 C 408.265625 552.308594 465.925781 516.230469 528.875 509.980469 C 548.152344 508.066406 567.691406 508.730469 586.761719 512.191406 C 589.632812 512.710938 592.59375 511.40625 593.414062 508.410156 C 594.132812 505.785156 592.523438 502.28125 589.636719 501.757812 C 554.269531 495.339844 517.507812 497.523438 483.246094 508.507812 C 451.996094 518.527344 423.269531 535.738281 399.519531 558.371094 C 386.421875 570.851562 374.90625 585.007812 365.269531 600.316406 C 361.550781 606.226562 370.90625 611.664062 374.609375 605.78125 " fill-opacity="1" fill-rule="nonzero"/><path fill="#03989e" d="M 431.785156 603.535156 C 455.066406 575.019531 489.152344 556.117188 525.617188 551.15625 C 535.839844 549.765625 546.230469 549.578125 556.507812 550.417969 C 559.421875 550.65625 561.917969 547.761719 561.917969 545.007812 C 561.917969 541.882812 559.433594 539.835938 556.507812 539.601562 C 517.605469 536.417969 478.242188 548.996094 447.585938 572.949219 C 438.941406 579.707031 431.078125 587.386719 424.140625 595.886719 C 422.292969 598.148438 421.925781 601.324219 424.140625 603.535156 C 426.042969 605.441406 429.929688 605.808594 431.785156 603.535156 " fill-opacity="1" fill-rule="nonzero"/><path fill="#03989e" d="M 208.246094 277.308594 C 212.253906 283.378906 216.132812 289.550781 219.378906 296.070312 C 222.488281 302.308594 224.871094 308.996094 227.164062 315.574219 C 232.085938 329.675781 236.179688 344.609375 237.777344 359.480469 C 240.773438 387.398438 236.949219 416.023438 227.121094 442.28125 C 221.65625 456.871094 214.332031 470.71875 205.925781 483.816406 C 202.15625 489.695312 211.511719 495.125 215.265625 489.277344 C 230.777344 465.101562 242.558594 438.042969 247.007812 409.539062 C 249.347656 394.546875 250.210938 379.101562 249.011719 363.964844 C 247.75 348.058594 243.910156 332.558594 239.148438 317.371094 C 236.671875 309.460938 233.738281 301.488281 230.308594 293.941406 C 226.785156 286.1875 222.273438 278.941406 217.585938 271.847656 C 213.765625 266.0625 204.394531 271.476562 208.246094 277.308594 " fill-opacity="1" fill-rule="nonzero"/><path fill="#03989e" d="M 187.296875 326.066406 C 205.414062 357.152344 204.6875 397.464844 185.636719 427.953125 C 181.933594 433.875 191.289062 439.3125 194.976562 433.414062 C 216.035156 399.714844 216.628906 354.914062 196.632812 320.601562 C 193.132812 314.589844 183.777344 320.03125 187.296875 326.066406 " fill-opacity="1" fill-rule="nonzero"/><path fill="#03989e" d="M 242.394531 432.332031 C 273.796875 439.285156 303.105469 454.625 326.625 476.589844 C 333.378906 482.894531 339.628906 489.714844 345.363281 496.964844 C 347.175781 499.257812 351.113281 498.859375 353.007812 496.964844 C 355.273438 494.699219 354.828125 491.613281 353.007812 489.3125 C 332.078125 462.847656 304.015625 442.507812 272.644531 430.214844 C 263.75 426.726562 254.59375 423.964844 245.269531 421.898438 C 238.484375 420.398438 235.585938 430.824219 242.394531 432.332031 " fill-opacity="1" fill-rule="nonzero"/><path fill="#03989e" d="M 390.664062 574.558594 C 388.566406 565.242188 386.472656 555.921875 384.378906 546.605469 C 382.847656 539.816406 372.417969 542.6875 373.945312 549.480469 C 376.042969 558.796875 378.136719 568.113281 380.234375 577.433594 C 381.761719 584.222656 392.191406 581.351562 390.664062 574.558594 " fill-opacity="1" fill-rule="nonzero"/><path fill="#03989e" d="M 226.144531 476.613281 C 235.984375 478.582031 244.613281 483.523438 250.785156 491.5 C 252.574219 493.816406 256.554688 493.382812 258.433594 491.5 C 260.71875 489.21875 260.226562 486.171875 258.433594 483.851562 C 251.273438 474.59375 240.421875 468.460938 229.019531 466.179688 C 222.222656 464.816406 219.316406 475.246094 226.144531 476.613281 " fill-opacity="1" fill-rule="nonzero"/><path fill="#03989e" d="M 185.613281 387.609375 C 185.136719 348.3125 195.046875 309.53125 213.71875 274.992188 C 217.027344 268.867188 207.695312 263.398438 204.375 269.53125 C 184.816406 305.722656 174.296875 346.421875 174.796875 387.609375 C 174.882812 394.570312 185.699219 394.585938 185.613281 387.609375 " fill-opacity="1" fill-rule="nonzero"/><path fill="#03989e" d="M 349.148438 590.15625 C 347.027344 575.695312 341.726562 561.785156 333.769531 549.527344 C 329.992188 543.707031 320.625 549.121094 324.429688 554.984375 C 331.9375 566.554688 336.71875 579.386719 338.71875 593.03125 C 339.144531 595.925781 342.804688 597.511719 345.375 596.808594 C 348.472656 595.957031 349.578125 593.058594 349.148438 590.15625 " fill-opacity="1" fill-rule="nonzero"/><path fill="#03989e" d="M 408.015625 595.15625 C 408.015625 594.859375 408.015625 594.5625 408.015625 594.265625 C 408.046875 593.519531 407.890625 592.828125 407.550781 592.179688 C 407.335938 591.511719 406.960938 590.929688 406.433594 590.441406 C 405.941406 589.914062 405.363281 589.539062 404.691406 589.324219 C 404.046875 588.984375 403.355469 588.828125 402.609375 588.855469 C 402.132812 588.921875 401.648438 588.984375 401.171875 589.050781 C 400.257812 589.308594 399.460938 589.769531 398.785156 590.441406 C 397.8125 591.5 397.199219 592.800781 397.199219 594.265625 C 397.199219 594.5625 397.199219 594.859375 397.199219 595.15625 C 397.171875 595.898438 397.328125 596.59375 397.667969 597.238281 C 397.882812 597.910156 398.257812 598.488281 398.785156 598.980469 C 399.277344 599.507812 399.855469 599.878906 400.527344 600.097656 C 401.167969 600.4375 401.867188 600.589844 402.609375 600.5625 C 403.089844 600.5 403.570312 600.433594 404.046875 600.367188 C 404.964844 600.113281 405.757812 599.648438 406.433594 598.980469 C 407.402344 597.921875 408.015625 596.617188 408.015625 595.15625 " fill-opacity="1" fill-rule="nonzero"/><path fill="#03989e" d="M 417.699219 584.582031 C 424.660156 584.582031 424.671875 573.761719 417.699219 573.761719 C 410.738281 573.761719 410.726562 584.582031 417.699219 584.582031 " fill-opacity="1" fill-rule="nonzero"/><path fill="#03989e" d="M 578.882812 520.910156 C 537.773438 515.207031 495.53125 522.511719 458.714844 541.734375 C 448.222656 547.214844 438.367188 553.707031 429.023438 560.964844 C 426.714844 562.757812 427.140625 566.730469 429.023438 568.617188 C 431.304688 570.894531 434.355469 570.414062 436.671875 568.617188 C 467.03125 545.035156 505.140625 531.472656 543.492188 529.882812 C 554.332031 529.429688 565.257812 529.851562 576.007812 531.34375 C 578.898438 531.746094 581.816406 530.640625 582.660156 527.5625 C 583.355469 525.035156 581.796875 521.316406 578.882812 520.910156 " fill-opacity="1" fill-rule="nonzero"/><path fill="#03989e" d="M 596.703125 465.21875 C 587.648438 474.492188 580.914062 485.578125 576.734375 497.835938 C 574.480469 504.4375 584.925781 507.277344 587.164062 500.710938 C 590.734375 490.238281 596.628906 480.777344 604.351562 472.871094 C 609.21875 467.886719 601.574219 460.226562 596.703125 465.21875 " fill-opacity="1" fill-rule="nonzero"/><path fill="#03989e" d="M 616.617188 457.535156 C 616.617188 457.238281 616.617188 456.941406 616.617188 456.644531 C 616.644531 455.898438 616.492188 455.207031 616.152344 454.5625 C 615.933594 453.890625 615.5625 453.308594 615.035156 452.820312 C 614.542969 452.292969 613.964844 451.921875 613.292969 451.703125 C 612.648438 451.363281 611.953125 451.207031 611.207031 451.234375 C 610.730469 451.300781 610.25 451.363281 609.769531 451.429688 C 608.855469 451.6875 608.058594 452.148438 607.386719 452.820312 C 606.414062 453.878906 605.800781 455.179688 605.800781 456.644531 C 605.800781 456.941406 605.800781 457.238281 605.800781 457.535156 C 605.773438 458.277344 605.929688 458.972656 606.265625 459.617188 C 606.484375 460.289062 606.859375 460.867188 607.386719 461.359375 C 607.875 461.886719 608.457031 462.257812 609.125 462.476562 C 609.769531 462.816406 610.464844 462.96875 611.207031 462.941406 C 611.6875 462.878906 612.167969 462.8125 612.648438 462.75 C 613.5625 462.492188 614.359375 462.03125 615.035156 461.359375 C 616.003906 460.300781 616.617188 458.996094 616.617188 457.535156 " fill-opacity="1" fill-rule="nonzero"/><path fill="#03989e" d="M 522.441406 565.9375 C 529.402344 565.9375 529.414062 555.117188 522.441406 555.117188 C 515.484375 555.117188 515.46875 565.9375 522.441406 565.9375 " fill-opacity="1" fill-rule="nonzero"/><path fill="#03989e" d="M 506.738281 571.453125 C 507.035156 571.15625 507.332031 570.863281 507.628906 570.566406 C 508.152344 570.078125 508.527344 569.496094 508.746094 568.828125 C 509.082031 568.183594 509.238281 567.484375 509.210938 566.742188 C 509.238281 565.996094 509.082031 565.300781 508.746094 564.65625 C 508.527344 563.988281 508.152344 563.40625 507.628906 562.917969 C 506.597656 561.972656 505.242188 561.269531 503.804688 561.332031 C 502.367188 561.398438 501.011719 561.878906 499.976562 562.917969 C 499.679688 563.210938 499.386719 563.507812 499.089844 563.804688 C 498.5625 564.292969 498.191406 564.875 497.972656 565.546875 C 497.632812 566.1875 497.476562 566.882812 497.507812 567.628906 C 497.476562 568.375 497.632812 569.070312 497.972656 569.714844 C 498.191406 570.382812 498.5625 570.964844 499.089844 571.453125 C 500.121094 572.402344 501.476562 573.105469 502.914062 573.039062 C 504.347656 572.976562 505.703125 572.488281 506.738281 571.453125 " fill-opacity="1" fill-rule="nonzero"/><path fill="#03989e" d="M 480.515625 571.570312 C 467.125 578.777344 454.675781 587.601562 443.351562 597.746094 C 438.15625 602.402344 445.824219 610.03125 451 605.398438 C 461.652344 595.851562 473.378906 587.691406 485.972656 580.914062 C 492.105469 577.613281 486.648438 568.265625 480.515625 571.570312 " fill-opacity="1" fill-rule="nonzero"/><path fill="#03989e" d="M 307.300781 556.425781 C 294.664062 542.167969 280.679688 529.230469 265.566406 517.640625 C 251.097656 506.550781 234.027344 492.71875 214.660156 495.40625 C 211.761719 495.808594 210.179688 499.507812 210.882812 502.0625 C 211.738281 505.179688 214.628906 506.242188 217.535156 505.839844 C 225.667969 504.710938 233.710938 509.015625 240.375 513.140625 C 247.695312 517.671875 254.734375 522.757812 261.5 528.074219 C 275.28125 538.890625 288.035156 550.96875 299.65625 564.074219 C 304.28125 569.292969 311.910156 561.621094 307.300781 556.425781 " fill-opacity="1" fill-rule="nonzero"/><path fill="#03989e" d="M 317.394531 581.917969 C 324.351562 581.917969 324.363281 571.097656 317.394531 571.097656 C 310.433594 571.097656 310.421875 581.917969 317.394531 581.917969 " fill-opacity="1" fill-rule="nonzero"/><path fill="#03989e" d="M 359.113281 567.417969 C 359.40625 567.417969 359.703125 567.417969 360 567.417969 C 360.746094 567.445312 361.441406 567.285156 362.085938 566.949219 C 362.753906 566.730469 363.335938 566.359375 363.824219 565.832031 C 364.351562 565.339844 364.726562 564.757812 364.945312 564.089844 C 365.28125 563.445312 365.4375 562.75 365.410156 562.003906 C 365.34375 561.527344 365.28125 561.046875 365.21875 560.566406 C 364.957031 559.652344 364.496094 558.855469 363.824219 558.179688 C 362.765625 557.210938 361.46875 556.59375 360 556.59375 C 359.703125 556.59375 359.40625 556.59375 359.113281 556.59375 C 358.371094 556.566406 357.675781 556.722656 357.03125 557.0625 C 356.359375 557.28125 355.777344 557.652344 355.289062 558.179688 C 354.761719 558.671875 354.390625 559.25 354.171875 559.921875 C 353.832031 560.566406 353.675781 561.261719 353.703125 562.003906 C 353.769531 562.484375 353.835938 562.964844 353.898438 563.445312 C 354.15625 564.359375 354.621094 565.15625 355.289062 565.832031 C 356.347656 566.800781 357.648438 567.417969 359.113281 567.417969 " fill-opacity="1" fill-rule="nonzero"/><path fill="#03989e" d="M 364.4375 584.582031 C 364.734375 584.582031 365.03125 584.582031 365.324219 584.582031 C 366.074219 584.609375 366.765625 584.453125 367.410156 584.117188 C 368.082031 583.894531 368.660156 583.523438 369.152344 582.996094 C 369.679688 582.507812 370.050781 581.925781 370.269531 581.253906 C 370.609375 580.609375 370.761719 579.917969 370.734375 579.171875 C 370.671875 578.695312 370.605469 578.210938 370.542969 577.734375 C 370.285156 576.816406 369.824219 576.023438 369.152344 575.347656 C 368.09375 574.375 366.792969 573.761719 365.324219 573.761719 C 365.03125 573.761719 364.734375 573.761719 364.4375 573.761719 C 363.695312 573.734375 363 573.886719 362.355469 574.226562 C 361.683594 574.445312 361.105469 574.820312 360.613281 575.347656 C 360.085938 575.835938 359.714844 576.417969 359.5 577.089844 C 359.160156 577.730469 359.003906 578.425781 359.03125 579.171875 C 359.097656 579.652344 359.160156 580.128906 359.226562 580.609375 C 359.480469 581.527344 359.945312 582.320312 360.613281 582.996094 C 361.671875 583.96875 362.976562 584.582031 364.4375 584.582031 " fill-opacity="1" fill-rule="nonzero"/><path fill="#03989e" d="M 319.324219 483.816406 C 293.324219 465.601562 264.179688 452.007812 233.546875 443.6875 C 226.824219 441.863281 223.953125 452.296875 230.671875 454.121094 C 260.472656 462.214844 288.570312 475.441406 313.863281 493.15625 C 316.253906 494.832031 319.871094 493.59375 321.261719 491.21875 C 322.839844 488.519531 321.71875 485.496094 319.324219 483.816406 " fill-opacity="1" fill-rule="nonzero"/><path fill="#03989e" d="M 208.210938 316.441406 C 215.171875 316.441406 215.183594 305.625 208.210938 305.625 C 201.25 305.625 201.238281 316.441406 208.210938 316.441406 " fill-opacity="1" fill-rule="nonzero"/><path fill="#03989e" d="M 217.089844 335.089844 C 224.050781 335.089844 224.0625 324.269531 217.089844 324.269531 C 210.128906 324.269531 210.117188 335.089844 217.089844 335.089844 " fill-opacity="1" fill-rule="nonzero"/><path fill="#03989e" d="M 205.691406 465.535156 C 226.296875 431.742188 234.007812 391.214844 227.8125 352.183594 C 227.355469 349.296875 223.75 347.695312 221.160156 348.40625 C 218.085938 349.253906 216.921875 352.164062 217.382812 355.0625 C 223.113281 391.164062 215.351562 428.917969 196.351562 460.074219 C 192.714844 466.035156 202.066406 471.476562 205.691406 465.535156 " fill-opacity="1" fill-rule="nonzero"/><path fill="#03989e" d="M 184.164062 390.054688 C 184.164062 390.351562 184.164062 390.648438 184.164062 390.941406 C 184.136719 391.6875 184.289062 392.382812 184.628906 393.027344 C 184.847656 393.695312 185.21875 394.277344 185.746094 394.765625 C 186.238281 395.292969 186.816406 395.667969 187.488281 395.886719 C 188.132812 396.222656 188.824219 396.382812 189.570312 396.351562 C 190.050781 396.289062 190.53125 396.222656 191.007812 396.160156 C 191.925781 395.902344 192.722656 395.4375 193.394531 394.765625 C 194.367188 393.707031 194.980469 392.410156 194.980469 390.941406 C 194.980469 390.648438 194.980469 390.351562 194.980469 390.054688 C 195.007812 389.308594 194.851562 388.613281 194.511719 387.972656 C 194.296875 387.296875 193.921875 386.71875 193.394531 386.230469 C 192.90625 385.703125 192.324219 385.328125 191.65625 385.109375 C 191.011719 384.773438 190.316406 384.617188 189.570312 384.644531 C 189.089844 384.707031 188.613281 384.773438 188.132812 384.839844 C 187.214844 385.09375 186.421875 385.558594 185.746094 386.230469 C 184.777344 387.285156 184.164062 388.589844 184.164062 390.054688 " fill-opacity="1" fill-rule="nonzero"/><path fill="#03989e" d="M 194.78125 369.085938 C 193.660156 362.507812 190.621094 356.632812 186.296875 351.601562 C 184.390625 349.382812 180.601562 349.644531 178.648438 351.601562 C 176.449219 353.796875 176.738281 357.03125 178.648438 359.25 C 181.789062 362.902344 183.546875 367.246094 184.351562 371.960938 C 184.839844 374.84375 188.390625 376.457031 191.003906 375.738281 C 194.054688 374.898438 195.273438 371.976562 194.78125 369.085938 " fill-opacity="1" fill-rule="nonzero"/></svg>